<svg width="512" height="512" viewBox="0 0 512 512" fill="none" xmlns="http://www.w3.org/2000/svg">
<g clip-path="url(#clip0_214_236)">
<path d="M466.784 44.7838C532.241 110.241 523.007 210.346 459.089 274.263C405.184 328.169 337.416 340.49 285.82 352.041C261.948 355.892 239.615 362.822 221.133 370.523C208.812 373.604 203.421 371.293 196.491 364.363L141.815 419.039C160.297 437.521 154.136 474.485 136.424 489.116C107.931 517.609 80.2077 502.208 69.4265 491.427C53.2549 475.255 54.0248 469.864 54.0248 457.543C41.7036 457.543 36.3127 458.313 20.141 442.141C9.35984 431.36 -6.0415 403.637 22.4514 375.144C37.0831 357.432 74.047 351.271 92.5291 369.753L147.205 315.077C140.274 308.146 137.964 302.756 141.044 290.434C148.745 271.952 155.676 249.62 159.526 225.747C171.078 174.151 183.399 106.384 237.305 52.4782C301.222 -11.4388 401.327 -20.6734 466.784 44.7838Z" fill="currentColor"/>
</g>
</svg>
