<svg width="512" height="512" viewBox="0 0 512 512" fill="none" xmlns="http://www.w3.org/2000/svg">
<path d="M422.814 88.7534C474.631 140.57 467.321 219.814 416.723 270.412C374.051 313.085 320.405 322.838 279.561 331.982C260.663 335.03 242.985 340.517 228.354 346.613C218.6 349.051 214.333 347.223 208.846 341.736L165.564 385.018C180.195 399.649 175.318 428.91 161.297 440.493C138.741 463.048 116.795 450.856 108.261 442.322C95.4591 429.52 96.0686 425.253 96.0686 415.499C86.315 415.499 82.0475 416.109 69.2458 403.307C60.7112 394.772 48.5193 372.826 71.0747 350.271C82.6573 336.25 111.918 331.373 126.549 346.003L169.831 302.721C164.345 297.235 162.516 292.967 164.955 283.214C171.051 268.583 176.537 250.904 179.585 232.006C188.729 191.163 198.483 137.517 241.156 94.8443C291.753 44.2468 370.997 36.9365 422.814 88.7534Z" fill="#F9FAFB"/>
</svg>
